<svg xmlns="http://www.w3.org/2000/svg" width="180" height="79" viewBox="0 0 180 79"><path fill="#333" d="M15.201 34.883c5.684 0 10.042 3.258 11.34 4.346l5.493-4.739c-1.48-1.482-7.418-6.784-16.599-6.784C6.255 27.706.31 31.83.31 38.468c0 7.483 9.201 10.036 15.92 11.905 4.238 1.18 7.298 2.026 7.298 3.852 0 2.21-2.595 3.581-6.77 3.581-5.677 0-9.98-3.248-11.267-4.342L0 58.199c1.48 1.482 7.408 6.784 16.523 6.784 9.116 0 15.202-4.125 15.202-10.762 0-7.48-9.233-10.036-15.973-11.905-4.251-1.18-7.325-2.03-7.325-3.855 0-2.178 2.657-3.585 6.774-3.585zM59.734 28.3 51.13 50.296 42.037 28.3h-8.733l13.522 32.836-.076.191-3.153 8.034c-1.109 2.817-.028 5.993 2.602 7.648l2.513 1.581L68.478 28.3h-8.744M97.37 22.63v8.58l-.868-.54c-3.112-1.938-6.74-2.96-10.489-2.96-11.824 0-21.225 10.142-19.198 21.82 1.22 7.019 6.713 12.91 13.883 14.779 5.55 1.443 11.23.573 15.8-2.277l.868-.54v2.906h8.82V14.385l-5.14 2.504c-2.258 1.1-3.676 3.318-3.676 5.74M86.327 57.144c-6.176 0-10.654-4.537-10.654-10.791s4.482-10.798 10.654-10.798 10.654 4.54 10.654 10.798c0 6.257-4.482 10.791-10.654 10.791M129.584 56.991c-4.028 0-7.529-2.175-9.133-5.67l-.285-.623 28.843-5.029c0-.033-.007-.069-.01-.105a5 5 0 0 1-.021-.406c-.379-10.026-8.898-17.898-19.398-17.898s-19.473 8.363-19.473 18.64c0 2.336.468 4.656 1.356 6.705 2.837 7.032 10.286 11.935 18.117 11.935 12.482 0 18.055-9.167 19.257-11.473l-7.226-2.198c-1.17 2.066-5.683 6.126-12.031 6.126zM119.25 42.608c.912-4.293 4.719-7.635 9.05-7.948 4.186-.385 8.499 1.997 10.482 5.796l.334.643-20.252 3.46.383-1.95z"></path><path fill="#9FCA28" d="M150.898 31.387h16.021c7.226 0 13.081-5.605 13.081-12.521V1.521c-19.057 9.041-29.102 29.866-29.102 29.866"></path><path fill="#9FCA28" d="M178.107 0h-17.842c-7.222 0-13.081 5.605-13.081 12.521v13.224S154.19 11.652 178.103 0z"></path></svg>